# xmcd
# 
# Track frame offsets:
#     150
#     19771
#     51854
#     76382
#     103480
#     110075
#     138944
#     167837
#     190944
#     213472
#     228742
#     256761
#     292695
#     307681
# 
# Disc length: 4360
# 
# Revision: 1
# Processed by: cddbd v1.5.2PL0 Copyright (c) Steve Scherf et al.
# Submitted via: BonkEnc v1.0.8
# 
DISCID=c011060e
DTITLE=Celtic Tales - Pas An Dour
DYEAR=2000
DGENRE=Contemporary Jazz
TTITLE0=Pas an Dour
TTITLE1=Candy Men
TTITLE2=Summer Rain
TTITLE3=One Out, One In
TTITLE4=Celtic Tale #5
TTITLE5=Pipe Chaser
TTITLE6=Divers
TTITLE7=Marie Louise
TTITLE8=Horse Crossing
TTITLE9=Kamplach'
TTITLE10=Dusk
TTITLE11=Sea Time
TTITLE12=Celtic Tale #6
TTITLE13=Bonus Extra
EXTD=
EXTT0=
EXTT1=
EXTT2=
EXTT3=
EXTT4=
EXTT5=
EXTT6=
EXTT7=
EXTT8=
EXTT9=
EXTT10=
EXTT11=
EXTT12=
EXTT13=
PLAYORDER=
